<svg width="58" height="25" viewBox="0 0 58 25" fill="none" xmlns="http://www.w3.org/2000/svg">
<g style="mix-blend-mode:luminosity" clip-path="url(#clip0_5920_4528)">
<path d="M3.27012 0.206543C4.10739 0.206543 4.76065 0.368267 5.22991 0.691718C5.69915 1.01517 5.93375 1.49874 5.93371 2.14242C5.93819 2.45395 5.84698 2.75942 5.67221 3.01818C5.48548 3.28495 5.21989 3.48756 4.91215 3.59799C5.29586 3.66204 5.63991 3.8706 5.87259 4.18023C6.08728 4.48214 6.19937 4.84415 6.1926 5.21364C6.1926 5.88972 5.96778 6.40161 5.51815 6.74928C5.0685 7.09695 4.43154 7.2708 3.60724 7.27085H0.108002V6.4218L0.865545 6.27622V1.20602L0.108002 1.06046V0.206543H3.27012ZM2.29257 3.16617H3.31897C3.70018 3.16617 3.99342 3.08855 4.19872 2.93328C4.30156 2.85324 4.38332 2.74962 4.43693 2.6313C4.49057 2.51299 4.51446 2.38354 4.50658 2.25402C4.50658 1.92736 4.40314 1.68638 4.19621 1.53109C3.98931 1.3758 3.68061 1.29818 3.27012 1.29821H2.29257L2.29257 3.16617ZM2.29257 4.1463V6.18403H3.60724C3.98531 6.18403 4.27367 6.10237 4.47235 5.93901C4.67103 5.77564 4.77041 5.53387 4.77048 5.21365C4.77048 4.86758 4.68577 4.60318 4.51632 4.42039C4.3469 4.23761 4.07974 4.14623 3.71482 4.14625L2.29257 4.1463Z" fill="white"/>
<path d="M9.97675 7.27108C9.93745 7.18332 9.90322 7.09341 9.87417 7.0018C9.84494 6.91049 9.82207 6.81727 9.80571 6.72282C9.63334 6.91918 9.42308 7.07923 9.18736 7.19353C8.92749 7.31695 8.64217 7.37842 8.35416 7.37303C7.83611 7.37303 7.42481 7.23313 7.12018 6.95334C6.81546 6.67362 6.66312 6.29274 6.66317 5.81072C6.65445 5.58566 6.70484 5.36223 6.80934 5.16234C6.91385 4.96246 7.06889 4.79297 7.2593 4.67049C7.65684 4.40205 8.2401 4.26781 9.00902 4.26776H9.7372V3.75349C9.74382 3.64582 9.72767 3.53798 9.68979 3.43686C9.65193 3.33577 9.59316 3.24364 9.51728 3.16642C9.37061 3.02739 9.15397 2.95784 8.86732 2.95779C8.72038 2.95572 8.57387 2.9745 8.43227 3.01359C8.32358 3.04276 8.21983 3.08772 8.12441 3.14703L8.03156 3.70982H6.95645L6.96122 2.54537C7.2404 2.36157 7.54171 2.21323 7.85807 2.10386C8.21228 1.98139 8.58516 1.92066 8.96021 1.92435C9.61507 1.92435 10.1469 2.08366 10.5559 2.40228C10.9648 2.72091 11.1693 3.17453 11.1692 3.76315V5.93199C11.1692 6.01286 11.1701 6.08886 11.1717 6.15999C11.173 6.22823 11.1787 6.2963 11.1888 6.36379L11.6237 6.422V7.27105L9.97675 7.27108ZM8.74017 6.32497C8.94417 6.32762 9.14566 6.28012 9.32668 6.1867C9.48966 6.10556 9.63052 5.98657 9.73724 5.83981V5.03919H9.00906C8.70605 5.03919 8.47632 5.10956 8.31985 5.25026C8.2459 5.31268 8.18657 5.3904 8.14606 5.47799C8.10555 5.56558 8.08482 5.66089 8.08533 5.75726C8.08113 5.83526 8.09451 5.91318 8.12451 5.98539C8.15452 6.05757 8.20037 6.12222 8.25875 6.17459C8.39517 6.28172 8.56655 6.33527 8.74017 6.32497Z" fill="white"/>
<path d="M17.2592 2.87521L16.7656 2.948L14.8204 8.057C14.6826 8.41178 14.474 8.73526 14.2071 9.00796C13.9513 9.26346 13.566 9.39122 13.0512 9.39128C12.9373 9.39186 12.8237 9.38211 12.7116 9.36217C12.6058 9.34274 12.4811 9.31524 12.3378 9.27966L12.5039 8.24623C12.5494 8.25266 12.5968 8.25913 12.6456 8.26565C12.6877 8.2716 12.7302 8.27483 12.7727 8.27534C12.9705 8.28852 13.166 8.22701 13.3201 8.10309C13.4499 7.98433 13.5502 7.83736 13.6133 7.67371L13.7746 7.27584L12.0982 2.95284L11.6046 2.87521V2.0213H14.1949V2.87521L13.6035 2.97227L14.3269 5.06826L14.4001 5.4467L14.4295 5.45156L15.2652 2.97226L14.6689 2.87521V2.0213H17.2592L17.2592 2.87521Z" fill="white"/>
<path d="M19.933 7.37287C19.1705 7.37287 18.5613 7.13029 18.1053 6.64508C17.649 6.1599 17.4209 5.54371 17.421 4.79654V4.60242C17.421 3.82293 17.6368 3.18087 18.0685 2.67621C18.5003 2.17158 19.0794 1.92089 19.806 1.92416C20.5195 1.92416 21.0734 2.13765 21.4677 2.56461C21.8621 2.99158 22.0593 3.56896 22.059 4.29674V5.06817H18.9018L18.8921 5.09729C18.9057 5.41343 19.0292 5.71513 19.2415 5.95118C19.3495 6.06389 19.4807 6.15216 19.6262 6.20993C19.7717 6.26771 19.928 6.29365 20.0846 6.28595C20.3501 6.29237 20.6151 6.2605 20.8714 6.19134C21.1092 6.1156 21.3386 6.01558 21.5557 5.8929L21.9417 6.76619C21.6859 6.95701 21.3992 7.10305 21.0938 7.19801C20.7191 7.31879 20.3269 7.37784 19.933 7.37287ZM19.806 3.01589C19.6849 3.01159 19.5646 3.03676 19.4556 3.08919C19.3465 3.14162 19.2521 3.21973 19.1804 3.31671C19.0151 3.54976 18.917 3.82323 18.8969 4.10757L18.9116 4.13179H20.6611V4.00562C20.6745 3.74849 20.5996 3.49448 20.4486 3.28513C20.3706 3.19298 20.2717 3.12052 20.16 3.07371C20.0483 3.02689 19.9269 3.00711 19.806 3.01589Z" fill="white"/>
<path d="M22.5229 6.42195L23.2071 6.27638V3.02086L22.4495 2.87529V2.02133H24.5364L24.5999 2.78793C24.7051 2.54056 24.8697 2.32238 25.0788 2.15231C25.2722 2.00102 25.512 1.9205 25.7581 1.92426C25.8374 1.92461 25.9166 1.93028 25.9952 1.94127C26.0654 1.95001 26.1349 1.96379 26.203 1.9825L26.0514 3.27311L25.4651 3.25854C25.2845 3.25173 25.1056 3.29365 24.9471 3.37983C24.8102 3.46073 24.7012 3.58081 24.6343 3.72434V6.27638L25.3184 6.42195V7.271H22.5229V6.42195Z" fill="white"/>
<path d="M26.5778 6.42202L27.262 6.27647V3.02093L26.5046 2.87536V2.0214H28.5916L28.655 2.77343C28.8186 2.51669 29.0415 2.30219 29.305 2.14755C29.5679 1.9973 29.8667 1.92022 30.17 1.92435C30.7043 1.92435 31.1215 2.09094 31.4213 2.42411C31.7208 2.7573 31.8707 3.27967 31.8707 3.99125V6.27647L32.5549 6.42202V7.27107H29.8279V6.42202L30.4389 6.27647V3.99609C30.4389 3.64358 30.3671 3.39373 30.2237 3.24648C30.0803 3.09925 29.8637 3.02567 29.5739 3.02572C29.3975 3.02281 29.2232 3.06192 29.0654 3.13973C28.9158 3.21566 28.7865 3.32635 28.6892 3.4624V6.27646L29.266 6.42202V7.27107H26.5778L26.5778 6.42202Z" fill="white"/>
<path d="M0.287292 15.2621L1.04472 15.1166V10.0464L0.287292 9.90081V9.04688H3.19517V9.90081L2.47192 10.0464V11.9338H3.09263L4.46099 9.95905L4.04067 9.90081V9.04688H6.86068V9.90081L6.08851 10.0319L4.33879 12.3511L6.30343 15.1409L7.01711 15.2622V16.1112H4.19709V15.2622L4.63691 15.204L3.26849 13.1613H2.47184V15.1166L3.1951 15.2621V16.1112H0.287292V15.2621Z" fill="white"/>
<path d="M10.4136 16.1114C10.3743 16.0236 10.34 15.9337 10.3109 15.8421C10.2818 15.7507 10.259 15.6575 10.2424 15.5631C10.0701 15.7594 9.85995 15.9194 9.62432 16.0337C9.36443 16.1571 9.07909 16.2186 8.79105 16.2132C8.27291 16.2132 7.86157 16.0733 7.55698 15.7936C7.25223 15.5138 7.09994 15.133 7.10006 14.6509C7.09134 14.4259 7.14173 14.2024 7.24626 14.0026C7.35077 13.8027 7.50588 13.6332 7.69628 13.5108C8.09376 13.2423 8.67694 13.1081 9.44591 13.1081H10.1741V12.5938C10.1807 12.4861 10.1645 12.3782 10.1267 12.2772C10.0888 12.1761 10.03 12.0839 9.95419 12.0067C9.80762 11.8677 9.59093 11.7981 9.30414 11.7981C9.15727 11.796 9.01083 11.8148 8.8693 11.8539C8.76056 11.883 8.65679 11.928 8.56132 11.9873L8.46848 12.5501H7.39318L7.39818 11.3857C7.67732 11.2019 7.97858 11.0535 8.2949 10.9441C8.64912 10.8217 9.02199 10.761 9.39706 10.7646C10.0519 10.7646 10.5838 10.924 10.9927 11.2426C11.4016 11.5612 11.606 12.0148 11.6061 12.6035V14.7723C11.6061 14.8532 11.6069 14.9292 11.6085 15.0003C11.6099 15.0685 11.6156 15.1366 11.6256 15.2041L12.0606 15.2623V16.1114L10.4136 16.1114ZM9.17714 15.1653C9.38114 15.1679 9.58261 15.1204 9.76362 15.027C9.92658 14.9459 10.0674 14.8269 10.1741 14.6801V13.8795H9.44586C9.14288 13.8795 8.91318 13.9499 8.75679 14.0906C8.6828 14.1529 8.62344 14.2307 8.58291 14.3183C8.54238 14.4058 8.52165 14.5012 8.52216 14.5976C8.51798 14.6755 8.53139 14.7535 8.56141 14.8257C8.59142 14.8979 8.63729 14.9625 8.69569 15.0148C8.83207 15.1221 9.00349 15.1756 9.17714 15.1653Z" fill="white"/>
<path d="M12.1025 11.7159V10.862H14.1747L14.2431 11.4734C14.3874 11.2582 14.5797 11.0789 14.8051 10.9493C15.0386 10.8226 15.3015 10.7591 15.5676 10.765C15.8659 10.7531 16.1625 10.8167 16.4292 10.95C16.696 11.0833 16.9242 11.2817 17.0924 11.5267C17.454 12.0346 17.6348 12.7025 17.6349 13.5305V13.6324C17.6349 14.4087 17.4541 15.033 17.0924 15.5052C16.7307 15.9775 16.2257 16.2136 15.5773 16.2136C15.3229 16.2184 15.0706 16.1661 14.8394 16.0608C14.6219 15.957 14.4326 15.8031 14.2871 15.612V17.1306L14.9762 17.2762V18.1301H12.1758V17.2762L12.8649 17.1306V11.8615L12.1025 11.7159ZM16.2078 13.5305C16.2078 13.0356 16.1248 12.6345 15.9587 12.3273C15.8907 12.185 15.7824 12.0656 15.6469 11.9837C15.5114 11.9018 15.3548 11.861 15.1963 11.8663C15.0045 11.8606 14.8147 11.9059 14.6464 11.9974C14.4937 12.0859 14.3692 12.2154 14.2872 12.371V14.6708C14.3714 14.816 14.4961 14.934 14.6464 15.0104C14.8209 15.093 15.0128 15.133 15.206 15.1268C15.3578 15.1362 15.5093 15.1035 15.6435 15.0324C15.7777 14.9613 15.8893 14.8546 15.966 14.7241C16.1272 14.4557 16.2079 14.0918 16.2078 13.6325L16.2078 13.5305Z" fill="white"/>
<path d="M17.9782 15.262L18.6672 15.1164V11.8608L17.9048 11.7153V10.8614H20.0942V15.1164L20.7786 15.262V16.111H17.9782V15.262ZM20.0942 9.60474H18.6672V8.54218H20.0942V9.60474Z" fill="white"/>
<path d="M22.9537 9.57611V10.8619H23.8824V11.8565H22.9537V14.5299C22.9386 14.6862 22.9842 14.8423 23.0809 14.9665C23.1255 15.0108 23.1792 15.0454 23.238 15.068C23.297 15.0905 23.36 15.1006 23.423 15.0976C23.5087 15.0982 23.5942 15.0941 23.6795 15.0854C23.7625 15.0758 23.8448 15.062 23.9263 15.0442L24.0486 16.068C23.8933 16.1155 23.7348 16.1519 23.5745 16.1771C23.4062 16.2023 23.2363 16.2144 23.0662 16.2135C22.5742 16.2135 22.1954 16.0793 21.9299 15.8108C21.6643 15.5424 21.5315 15.1171 21.5316 14.5348V11.8565H20.7544V10.8619H21.5316V9.57611L22.9537 9.57611Z" fill="white"/>
<path d="M27.7333 16.1114C27.6941 16.0236 27.6599 15.9337 27.6306 15.8421C27.6016 15.7507 27.5788 15.6575 27.5623 15.5631C27.3898 15.7594 27.1798 15.9194 26.9441 16.0337C26.6843 16.1571 26.3989 16.2186 26.1109 16.2132C25.5927 16.2132 25.1813 16.0733 24.8767 15.7936C24.572 15.5138 24.4198 15.133 24.4198 14.6509C24.4112 14.4259 24.4616 14.2024 24.5659 14.0026C24.6705 13.8027 24.8255 13.6332 25.0161 13.5108C25.4135 13.2423 25.9968 13.1081 26.7656 13.1081H27.494V12.5938C27.5005 12.4861 27.4844 12.3782 27.4465 12.2772C27.4087 12.1761 27.3499 12.0839 27.2741 12.0067C27.1275 11.8677 26.9109 11.7981 26.6241 11.7981C26.477 11.796 26.3306 11.8148 26.189 11.8539C26.0805 11.883 25.9766 11.928 25.8811 11.9873L25.7884 12.5501H24.7131L24.7179 11.3857C24.997 11.2019 25.2982 11.0535 25.6148 10.9441C25.9689 10.8217 26.3417 10.761 26.7168 10.7646C27.3717 10.7646 27.9034 10.924 28.3125 11.2426C28.7215 11.5612 28.9258 12.0148 28.9258 12.6035V14.7723C28.9258 14.8532 28.9267 14.9292 28.9283 15.0003C28.9297 15.0685 28.9353 15.1366 28.9453 15.2041L29.3804 15.2623V16.1114L27.7333 16.1114ZM26.497 15.1653C26.701 15.1679 26.9025 15.1204 27.0833 15.027C27.2465 14.9459 27.3873 14.8269 27.494 14.6801V13.8795H26.7656C26.4626 13.8795 26.233 13.9499 26.0765 14.0906C26.0026 14.1529 25.9432 14.2307 25.9027 14.3183C25.8623 14.4058 25.8414 14.5012 25.8418 14.5976C25.8379 14.6755 25.8511 14.7535 25.8811 14.8257C25.9113 14.8979 25.9571 14.9625 26.0154 15.0148C26.1518 15.122 26.3234 15.1756 26.497 15.1653Z" fill="white"/>
<path d="M29.6667 9.39609V8.54218H31.8563V15.1164L32.5454 15.262V16.111H29.7401V15.262L30.4292 15.1164V9.54164L29.6667 9.39609Z" fill="white"/>
<path d="M1.90569 23.0347L1.9801 23.299H1.9891L2.06342 23.0347L2.9335 20.5598H3.38438L2.1649 23.8179H1.80201L0.58255 20.5598H1.03558L1.90569 23.0347Z" fill="white"/>
<path d="M4.53781 23.8623C4.38645 23.8695 4.2353 23.8439 4.09506 23.7867C3.95483 23.7298 3.82894 23.6429 3.72631 23.532C3.51929 23.2878 3.41299 22.975 3.42875 22.6561V22.5553C3.41606 22.2385 3.52529 21.929 3.73424 21.6893C3.82439 21.5828 3.93708 21.4973 4.06427 21.4389C4.19149 21.3805 4.33007 21.3506 4.47023 21.3514C4.80075 21.3514 5.04907 21.4476 5.21519 21.6401C5.39195 21.8647 5.48047 22.1454 5.46425 22.43V22.7007H3.84809C3.84344 22.9152 3.90863 23.1256 4.03399 23.3006C4.0932 23.3761 4.16996 23.4363 4.2577 23.476C4.34543 23.5158 4.44152 23.5339 4.53781 23.5288C4.67167 23.5318 4.80495 23.5104 4.93117 23.466C5.0404 23.4251 5.14149 23.3652 5.2298 23.2894L5.39437 23.5646C5.29574 23.6573 5.17968 23.73 5.05281 23.7781C4.88811 23.8386 4.71332 23.8672 4.53781 23.8623ZM4.47023 21.6871C4.39347 21.6865 4.31759 21.7032 4.24826 21.736C4.17896 21.7687 4.11802 21.8167 4.07006 21.8762C3.95476 22.0168 3.88239 22.1872 3.8615 22.3672H5.04718V22.3091C5.05357 22.1481 5.00252 21.99 4.90298 21.8627C4.84939 21.8023 4.78243 21.755 4.70734 21.7245C4.63228 21.694 4.5511 21.6812 4.47023 21.6871Z" fill="white"/>
<path d="M6.32283 21.397L6.35221 21.7595L6.35885 21.7617C6.43292 21.6375 6.53715 21.5336 6.66207 21.4596C6.79126 21.3863 6.93811 21.3492 7.08692 21.3522C7.19887 21.3448 7.31114 21.3609 7.41639 21.3994C7.52165 21.438 7.61754 21.4982 7.69778 21.576C7.83904 21.7252 7.90966 21.9631 7.90966 22.2898V23.8183H7.49051V22.2989C7.49051 22.0765 7.44805 21.9207 7.36313 21.8311C7.30937 21.7825 7.24609 21.7455 7.17725 21.7224C7.10839 21.6993 7.03547 21.6906 6.96307 21.6969C6.83776 21.6937 6.71426 21.7272 6.60796 21.7931C6.50522 21.8604 6.42174 21.9529 6.36564 22.0616V23.8183H5.94641V21.397H6.32283Z" fill="white"/>
<path d="M9.0033 20.8085V21.3971H9.47214V21.7126H9.0033V23.1939C8.9946 23.2815 9.01606 23.3696 9.06416 23.4435C9.0848 23.467 9.11055 23.4856 9.13943 23.4977C9.16832 23.51 9.19963 23.5156 9.23098 23.5139C9.3026 23.5137 9.37386 23.5039 9.44286 23.4849L9.49919 23.7782C9.44871 23.8079 9.3934 23.8286 9.33572 23.8395C9.2673 23.8551 9.19735 23.863 9.12718 23.8632C9.05314 23.8672 8.9791 23.8551 8.91022 23.8279C8.84133 23.8005 8.77921 23.7589 8.7282 23.7054C8.63201 23.6002 8.58393 23.4298 8.584 23.1939V21.7126H8.23456V21.3971H8.58397V20.8085L9.0033 20.8085Z" fill="white"/>
<path d="M11.4493 23.4645L11.4425 23.4624C11.3739 23.5855 11.2736 23.6883 11.1517 23.7599C11.0223 23.8312 10.876 23.8668 10.728 23.8628C10.6119 23.87 10.4958 23.8516 10.3878 23.8089C10.2798 23.7661 10.1828 23.7001 10.1036 23.6155C9.95788 23.4508 9.885 23.1863 9.88495 22.8223V21.3969H10.3042V22.8268C10.3042 23.0924 10.3432 23.2739 10.4214 23.3717C10.4676 23.4231 10.5253 23.4633 10.5899 23.4886C10.6545 23.5142 10.7242 23.5242 10.7934 23.5182C10.9355 23.5249 11.0766 23.491 11.2002 23.421C11.306 23.3527 11.3883 23.2539 11.4358 23.1377V21.3969H11.8527V23.8182H11.4786L11.4493 23.4645Z" fill="white"/>
<path d="M13.6338 21.7701L13.3903 21.7566C13.2784 21.7521 13.168 21.7827 13.0747 21.8439C12.9879 21.9075 12.9214 21.9945 12.8831 22.0946V23.8176H12.4638V21.3964H12.838L12.8786 21.7476L12.8853 21.7499C12.9453 21.6333 13.0328 21.5327 13.1401 21.4567C13.2464 21.3853 13.3725 21.3486 13.5008 21.3515C13.5366 21.3515 13.5724 21.3541 13.6078 21.3594C13.6356 21.363 13.6631 21.3686 13.6901 21.3761L13.6338 21.7701Z" fill="white"/>
<path d="M14.984 23.8623C14.8326 23.8695 14.6815 23.8439 14.5413 23.7867C14.401 23.7298 14.2751 23.6429 14.1725 23.532C13.9655 23.2878 13.8592 22.975 13.8749 22.6561V22.5553C13.8623 22.2385 13.9715 21.929 14.1804 21.6893C14.2706 21.5828 14.3833 21.4973 14.5105 21.4389C14.6377 21.3805 14.7763 21.3506 14.9164 21.3514C15.2469 21.3514 15.4952 21.4476 15.6614 21.6401C15.8381 21.8647 15.9267 22.1454 15.9104 22.43V22.7007H14.2943C14.2897 22.9152 14.3549 23.1256 14.4802 23.3006C14.5394 23.3761 14.6162 23.4363 14.7039 23.476C14.7916 23.5158 14.8877 23.5339 14.984 23.5288C15.1179 23.5318 15.2512 23.5104 15.3773 23.466C15.4866 23.4251 15.5877 23.3652 15.676 23.2894L15.8406 23.5646C15.7419 23.6573 15.6259 23.73 15.499 23.7781C15.3343 23.8386 15.1595 23.8672 14.984 23.8623ZM14.9164 21.6871C14.8397 21.6865 14.7638 21.7032 14.6945 21.736C14.6252 21.7687 14.5642 21.8167 14.5163 21.8762C14.401 22.0168 14.3286 22.1872 14.3077 22.3672H15.4934V22.3091C15.4997 22.1481 15.4487 21.99 15.3492 21.8627C15.2955 21.8023 15.2286 21.755 15.1535 21.7245C15.0785 21.694 14.9973 21.6812 14.9164 21.6871Z" fill="white"/>
<path d="M19.9905 22.786C19.9693 23.0828 19.8408 23.3617 19.6287 23.5716C19.3954 23.7775 19.0893 23.8827 18.7778 23.8648C18.6067 23.8716 18.4364 23.8407 18.2789 23.774C18.1214 23.7075 17.9808 23.6069 17.8672 23.4798C17.6304 23.2002 17.5081 22.8423 17.5245 22.4774V21.9022C17.5087 21.5373 17.6309 21.1797 17.8672 20.8997C17.9804 20.772 18.1209 20.671 18.2784 20.604C18.436 20.5371 18.6066 20.5058 18.7778 20.5126C19.146 20.5126 19.4311 20.6069 19.6333 20.7956C19.8474 21.0104 19.9746 21.296 19.9905 21.5978H19.5734C19.5539 21.3908 19.47 21.1949 19.3334 21.0373C19.2587 20.9697 19.1709 20.9181 19.0753 20.8856C18.9798 20.853 18.8785 20.8403 18.7778 20.8482C18.6591 20.844 18.5412 20.8689 18.4345 20.9206C18.3278 20.9723 18.2355 21.0493 18.1658 21.1447C18.0094 21.3643 17.9305 21.629 17.9415 21.8977V22.4774C17.9301 22.7475 18.009 23.0138 18.1658 23.2348C18.2355 23.3303 18.3278 23.4072 18.4345 23.4588C18.5412 23.5107 18.6591 23.5355 18.7778 23.5313C18.8782 23.5392 18.9793 23.5272 19.0749 23.4958C19.1706 23.4642 19.2589 23.414 19.3346 23.3477C19.472 23.1904 19.5556 22.9938 19.5734 22.7863L19.9905 22.786Z" fill="white"/>
<path d="M21.9814 23.8179C21.9663 23.7417 21.9551 23.6791 21.9476 23.6299C21.9402 23.5806 21.9349 23.5292 21.9318 23.4756C21.844 23.5894 21.7336 23.6842 21.6073 23.754C21.4773 23.8267 21.3304 23.8641 21.1812 23.8625C20.9702 23.8783 20.7614 23.8104 20.6008 23.6736C20.5333 23.6029 20.4812 23.5192 20.4476 23.4279C20.4141 23.3366 20.3998 23.2392 20.4058 23.1421C20.4013 23.0349 20.4247 22.9282 20.4736 22.8327C20.5226 22.7372 20.5955 22.6556 20.6853 22.5959C20.9182 22.4553 21.1886 22.3882 21.4607 22.4035H21.9319V22.1574C21.9355 22.0933 21.9251 22.0293 21.9013 21.9696C21.8776 21.9099 21.8411 21.856 21.7944 21.8117C21.6841 21.7226 21.544 21.6782 21.4021 21.6875C21.2659 21.681 21.1314 21.72 21.02 21.7983C20.9757 21.8283 20.9394 21.8685 20.9141 21.9154C20.8888 21.9623 20.8753 22.0147 20.8747 22.0679H20.4578C20.4608 21.97 20.4865 21.8741 20.5331 21.7877C20.5796 21.7014 20.6456 21.6268 20.726 21.57C20.9257 21.4177 21.1732 21.3404 21.4247 21.3518C21.6665 21.3394 21.9049 21.4123 22.0976 21.5577C22.1834 21.6325 22.2507 21.7259 22.2944 21.8307C22.3379 21.9355 22.3567 22.0488 22.349 22.1619V23.3301C22.3488 23.413 22.3532 23.496 22.3625 23.5785C22.3718 23.6596 22.3886 23.7396 22.412 23.8179H21.9814ZM21.2421 23.5067C21.3894 23.509 21.5346 23.4721 21.6625 23.3993C21.7757 23.3384 21.8691 23.2469 21.9318 23.1353V22.69H21.4472C21.2834 22.6807 21.1215 22.7286 20.9896 22.8253C20.9382 22.8632 20.8964 22.9122 20.8675 22.9687C20.8386 23.0252 20.8233 23.0877 20.8229 23.1509C20.8201 23.1995 20.8281 23.2483 20.8462 23.2934C20.8642 23.3387 20.8921 23.3793 20.9276 23.4128C21.0171 23.4818 21.1292 23.5153 21.2421 23.5067Z" fill="white"/>
<path d="M25.0142 22.697C25.0307 23.0005 24.9438 23.3003 24.7674 23.5485C24.6844 23.6527 24.5778 23.7356 24.456 23.7905C24.3342 23.8451 24.2008 23.8699 24.0674 23.863C23.9298 23.8662 23.7929 23.8407 23.6661 23.7879C23.5529 23.7377 23.4539 23.6603 23.3776 23.5632L23.3709 23.5653V24.7491H22.9517V21.397H23.31L23.3505 21.7058C23.4255 21.5949 23.5271 21.5042 23.6458 21.4417C23.7748 21.3791 23.9171 21.3484 24.0607 21.3522C24.1987 21.3459 24.3361 21.3748 24.4599 21.4361C24.5836 21.4974 24.6893 21.5891 24.7672 21.7024C24.9317 21.9359 25.014 22.2517 25.0142 22.6501L25.0142 22.697ZM24.595 22.6501C24.6059 22.4095 24.5496 22.1707 24.4325 21.9598C24.3823 21.8753 24.3098 21.8061 24.2229 21.7598C24.1357 21.7134 24.0377 21.6916 23.9389 21.6968C23.818 21.6926 23.6986 21.7237 23.5952 21.7863C23.5008 21.8483 23.4237 21.933 23.3709 22.0325V23.2006C23.4246 23.2996 23.5024 23.3835 23.5975 23.4444C23.7023 23.5048 23.8225 23.5344 23.9435 23.5295C24.0379 23.536 24.1325 23.5186 24.2182 23.4788C24.304 23.4391 24.3781 23.3784 24.4339 23.3024C24.5494 23.1221 24.6056 22.9106 24.595 22.697L24.595 22.6501Z" fill="white"/>
<path d="M25.965 20.7705H25.548V20.3274H25.965V20.7705ZM25.965 23.8184H25.548V21.397H25.965V23.8184Z" fill="white"/>
<path d="M27.1167 20.8085V21.3971H27.5855V21.7126H27.1167V23.1939C27.1079 23.2815 27.1295 23.3696 27.1776 23.4435C27.1981 23.467 27.2239 23.4856 27.2527 23.4977C27.2817 23.51 27.3129 23.5156 27.3443 23.5139C27.4161 23.5137 27.4872 23.5039 27.5562 23.4849L27.6125 23.7782C27.562 23.8079 27.5067 23.8286 27.4491 23.8395C27.3807 23.8551 27.3108 23.863 27.2406 23.8632C27.1665 23.8672 27.0926 23.8551 27.0236 23.8279C26.9548 23.8005 26.8925 23.7589 26.8416 23.7054C26.7454 23.6002 26.6973 23.4298 26.6973 23.1939V21.7126H26.348V21.3971H26.6973V20.8085L27.1167 20.8085Z" fill="white"/>
<path d="M29.5103 23.8179C29.4952 23.7417 29.4838 23.6791 29.4763 23.6299C29.4689 23.5806 29.4635 23.5292 29.4605 23.4756C29.3729 23.5894 29.2623 23.6842 29.1361 23.754C29.006 23.8267 28.8591 23.8641 28.7099 23.8625C28.4989 23.8783 28.2902 23.8104 28.1296 23.6736C28.0619 23.6029 28.0099 23.5192 27.9764 23.4279C27.9427 23.3366 27.9285 23.2392 27.9346 23.1421C27.9302 23.0349 27.9534 22.9282 28.0024 22.8327C28.0513 22.7372 28.1242 22.6556 28.2142 22.5959C28.447 22.4553 28.7173 22.3882 28.9895 22.4035H29.4605V22.1574C29.4642 22.0933 29.4538 22.0293 29.4301 21.9696C29.4064 21.9099 29.3699 21.856 29.3232 21.8117C29.2128 21.7226 29.0727 21.6782 28.9309 21.6875C28.7947 21.681 28.6601 21.72 28.5488 21.7983C28.5044 21.8283 28.4682 21.8685 28.4428 21.9154C28.4175 21.9623 28.404 22.0147 28.4036 22.0679H27.9864C27.9894 21.97 28.0152 21.8741 28.0617 21.7877C28.1082 21.7014 28.1744 21.6268 28.2546 21.57C28.4545 21.4177 28.7017 21.3404 28.9534 21.3518C29.1951 21.3394 29.4336 21.4123 29.6262 21.5577C29.7122 21.6325 29.7794 21.7259 29.8231 21.8307C29.8665 21.9355 29.8854 22.0488 29.8777 22.1619V23.3301C29.8775 23.413 29.8819 23.496 29.8912 23.5785C29.9007 23.6594 29.9172 23.7396 29.9407 23.8179H29.5103ZM28.7708 23.5067C28.9181 23.509 29.0634 23.4721 29.1912 23.3993C29.3044 23.3384 29.3978 23.2469 29.4605 23.1353V22.69H28.976C28.8121 22.6807 28.6504 22.7286 28.5184 22.8253C28.467 22.8632 28.4252 22.9122 28.3961 22.9687C28.3673 23.0252 28.352 23.0877 28.3517 23.1509C28.349 23.1995 28.3569 23.2483 28.375 23.2934C28.3931 23.3387 28.4208 23.3793 28.4563 23.4128C28.5458 23.4818 28.6578 23.5153 28.7708 23.5067Z" fill="white"/>
<path d="M30.9179 23.8184H30.5007V20.3274H30.9179V23.8184Z" fill="white"/>
<path d="M32.9579 23.8179V21.7121H32.5747V21.3966H32.9579V21.0856C32.9428 20.8682 33.0134 20.6535 33.155 20.487C33.2294 20.4151 33.3179 20.3596 33.4153 20.3239C33.5126 20.2882 33.6163 20.2733 33.7197 20.2799C33.7708 20.2799 33.8215 20.2841 33.8719 20.2922C33.9224 20.3005 33.9798 20.312 34.0444 20.3269L33.9926 20.6514C33.96 20.6432 33.9268 20.6372 33.8933 20.6335C33.8529 20.6289 33.8122 20.6266 33.7715 20.6268C33.7162 20.6222 33.6605 20.6303 33.6086 20.6505C33.5568 20.6707 33.5103 20.7024 33.4729 20.7431C33.4023 20.843 33.3686 20.9639 33.3772 21.0855V21.3966H33.8956V21.7121H33.3772V23.8179L32.9579 23.8179Z" fill="white"/>
<path d="M35.8462 23.4647L35.8392 23.4626C35.7707 23.5855 35.6705 23.6882 35.5485 23.76C35.419 23.8314 35.2729 23.8669 35.1248 23.863C35.0088 23.8702 34.8926 23.8516 34.7846 23.8088C34.6767 23.7661 34.5796 23.7001 34.5003 23.6157C34.3546 23.4509 34.2819 23.1865 34.2819 22.8225V21.3969H34.7009V22.8269C34.7009 23.0924 34.7402 23.2741 34.8183 23.3717C34.8645 23.4233 34.9222 23.4633 34.9868 23.4888C35.0514 23.5142 35.1211 23.5244 35.1901 23.5183C35.3323 23.5248 35.4734 23.4911 35.597 23.421C35.7028 23.3529 35.7851 23.2541 35.8327 23.1379V21.3969H36.2496V23.8181H35.8755L35.8462 23.4647ZM34.9828 20.9875H34.505V20.5489H34.9828V20.9875ZM36.0398 20.9875H35.5643V20.5489H36.04L36.0398 20.9875Z" fill="white"/>
<path d="M38.031 21.77L37.7877 21.7566C37.6756 21.7521 37.5653 21.7826 37.4721 21.8439C37.3851 21.9074 37.3187 21.9944 37.2803 22.0945V23.8177H36.8611V21.3963H37.2352L37.2759 21.7476L37.2827 21.7498C37.3426 21.6333 37.43 21.5327 37.5374 21.4568C37.6438 21.3854 37.7698 21.3487 37.8981 21.3516C37.9338 21.3516 37.9696 21.3542 38.0052 21.3594C38.0328 21.3631 38.0605 21.3687 38.0875 21.3762L38.031 21.77Z" fill="white"/>
<path d="M39.6968 23.8179V20.5598H40.7496C41.0982 20.5598 41.3676 20.6318 41.5577 20.7758C41.7478 20.9197 41.8428 21.1409 41.8428 21.4393C41.8449 21.5823 41.7968 21.7216 41.7064 21.8331C41.6127 21.9485 41.4882 22.0353 41.3469 22.0838V22.0905C41.5316 22.1232 41.6966 22.2244 41.8089 22.3736C41.9216 22.5262 41.9802 22.7115 41.9758 22.9006C41.9848 23.0292 41.9637 23.1579 41.9139 23.2769C41.8642 23.3959 41.7873 23.5019 41.6894 23.5865C41.4601 23.7529 41.1796 23.8347 40.896 23.8179L39.6968 23.8179ZM40.114 21.9517H40.8623C41.012 21.9554 41.1577 21.9058 41.2737 21.8119C41.3745 21.7045 41.4292 21.5623 41.4257 21.4155C41.4224 21.2687 41.3613 21.1291 41.2558 21.0264C41.1059 20.9289 40.9281 20.8829 40.7496 20.8955H40.114V21.9517ZM40.114 22.2853V23.4847H40.8963C41.0724 23.4961 41.2467 23.4431 41.3864 23.3357C41.4456 23.2813 41.4919 23.2142 41.5216 23.1398C41.5514 23.0652 41.5642 22.985 41.5588 22.9051C41.5691 22.7403 41.5172 22.5776 41.4134 22.4486C41.3541 22.3903 41.283 22.3454 41.2044 22.3173C41.1261 22.289 41.0424 22.278 40.9592 22.2853H40.114Z" fill="white"/>
<path d="M44.0053 23.8179C43.9902 23.7417 43.979 23.6791 43.9714 23.6299C43.9639 23.5806 43.9586 23.5292 43.9556 23.4756C43.8679 23.5894 43.7573 23.6842 43.6311 23.754C43.501 23.8267 43.3541 23.8641 43.2051 23.8625C42.9939 23.8783 42.7852 23.8104 42.6246 23.6736C42.5572 23.6029 42.5049 23.5192 42.4714 23.4279C42.4377 23.3366 42.4236 23.2392 42.4296 23.1421C42.4252 23.0349 42.4484 22.9282 42.4975 22.8327C42.5463 22.7372 42.6192 22.6556 42.7092 22.5959C42.9418 22.4553 43.2123 22.3882 43.4845 22.4035H43.9556V22.1574C43.9593 22.0933 43.9488 22.0293 43.9251 21.9696C43.9014 21.9099 43.8649 21.856 43.8182 21.8117C43.7078 21.7226 43.5677 21.6782 43.4259 21.6875C43.2897 21.681 43.1552 21.72 43.0438 21.7983C42.9995 21.8282 42.9632 21.8684 42.9379 21.9154C42.9125 21.9623 42.8991 22.0147 42.8984 22.0679H42.4814C42.4845 21.97 42.5103 21.8741 42.5567 21.7877C42.6032 21.7014 42.6692 21.6268 42.7496 21.57C42.9495 21.4177 43.1968 21.3404 43.4485 21.3518C43.6901 21.3394 43.9286 21.4123 44.1212 21.5577C44.2072 21.6325 44.2744 21.7259 44.3181 21.8307C44.3616 21.9355 44.3804 22.0488 44.3727 22.1619V23.3301C44.3725 23.413 44.3769 23.496 44.3862 23.5785C44.3955 23.6596 44.4122 23.7396 44.4357 23.8179H44.0053ZM43.2658 23.5067C43.4131 23.509 43.5584 23.4721 43.6862 23.3993C43.7994 23.3384 43.8928 23.2469 43.9556 23.1353V22.69H43.471C43.3072 22.6807 43.1454 22.7286 43.0134 22.8253C42.962 22.8629 42.9202 22.9122 42.8914 22.9687C42.8623 23.0252 42.847 23.0877 42.8465 23.1509C42.844 23.1995 42.8519 23.2483 42.87 23.2934C42.8881 23.3387 42.9158 23.3793 42.9513 23.4128C43.0408 23.4818 43.1528 23.5153 43.2658 23.5067Z" fill="white"/>
<path d="M45.6458 22.9455L45.7316 23.2676H45.7383L46.3584 21.3968H46.8248L45.7925 24.1918C45.7355 24.3496 45.6474 24.4946 45.5333 24.6181C45.4731 24.6789 45.4004 24.7261 45.3205 24.7568C45.2403 24.7875 45.1545 24.801 45.0688 24.7961C45.0244 24.7951 44.9798 24.7912 44.9358 24.7838C44.8833 24.7754 44.8419 24.7677 44.812 24.7603L44.8547 24.4268C44.8819 24.4263 44.9091 24.4279 44.9358 24.4312C44.9946 24.4356 45.0321 24.4379 45.0486 24.4379C45.0895 24.4414 45.1306 24.4358 45.1687 24.4212C45.207 24.4068 45.2414 24.3838 45.2696 24.354C45.3407 24.2539 45.399 24.1451 45.4432 24.0308L45.5536 23.7689L44.6407 21.3968H45.1071L45.6458 22.9455Z" fill="white"/>
<path d="M48.0979 23.8623C47.9466 23.8695 47.7955 23.8439 47.6552 23.7867C47.515 23.7298 47.3891 23.6429 47.2863 23.532C47.0795 23.2878 46.9731 22.975 46.9889 22.6561V22.5553C46.9761 22.2385 47.0853 21.929 47.2945 21.6893C47.3844 21.5828 47.4971 21.4973 47.6245 21.4389C47.7516 21.3805 47.8901 21.3506 48.0303 21.3514C48.361 21.3514 48.6092 21.4476 48.7753 21.6401C48.9522 21.8647 49.0405 22.1454 49.0245 22.43V22.7007H47.4081C47.4035 22.9152 47.4688 23.1256 47.594 23.3006C47.6533 23.3761 47.73 23.4363 47.8178 23.476C47.9055 23.5158 48.0017 23.5339 48.0979 23.5288C48.2318 23.5318 48.3651 23.5104 48.4913 23.466C48.6006 23.4251 48.7017 23.3652 48.79 23.2894L48.9545 23.5646C48.856 23.6573 48.7398 23.73 48.6129 23.7781C48.4484 23.8386 48.2734 23.8672 48.0979 23.8623ZM48.0303 21.6871C47.9536 21.6865 47.8778 21.7032 47.8083 21.736C47.7391 21.7687 47.6782 21.8167 47.6301 21.8762C47.5148 22.0168 47.4425 22.1872 47.4216 22.3672H48.6073V22.3091C48.6136 22.1481 48.5627 21.99 48.463 21.8627C48.4095 21.8023 48.3426 21.755 48.2675 21.7245C48.1925 21.694 48.1111 21.6812 48.0303 21.6871Z" fill="white"/>
<path d="M50.6766 21.7701L50.433 21.7566C50.3212 21.7521 50.2106 21.7827 50.1174 21.8439C50.0305 21.9075 49.964 21.9945 49.9257 22.0946V23.8176H49.5064V21.3964H49.8806L49.9213 21.7476L49.928 21.7499C49.988 21.6333 50.0754 21.5327 50.1827 21.4567C50.2892 21.3853 50.4151 21.3486 50.5434 21.3515C50.5792 21.3515 50.615 21.3541 50.6503 21.3594C50.6782 21.363 50.7056 21.3686 50.7328 21.3761L50.6766 21.7701Z" fill="white"/>
<path d="M51.4721 21.397L51.5016 21.7595L51.5081 21.7617C51.5823 21.6375 51.6866 21.5336 51.8114 21.4596C51.9406 21.3863 52.0875 21.3492 52.2362 21.3522C52.3483 21.3448 52.4605 21.3609 52.5658 21.3994C52.6711 21.438 52.7668 21.4982 52.8472 21.576C52.9883 21.7252 53.0589 21.9631 53.0589 22.2898V23.8183H52.6397V22.2989C52.6397 22.0765 52.5974 21.9207 52.5123 21.8311C52.4586 21.7825 52.3954 21.7455 52.3264 21.7224C52.2576 21.6993 52.1846 21.6906 52.1124 21.6969C51.9871 21.6937 51.8635 21.7272 51.7573 21.7931C51.6545 21.8604 51.5711 21.9529 51.5149 22.0616V23.8183H51.0956V21.397H51.4721Z" fill="white"/>
<path d="M51.7842 4.63502H56.2073C56.2586 4.6349 56.3084 4.61824 56.3493 4.58752C56.3902 4.55682 56.4199 4.51373 56.4339 4.46476L57.5703 0.501776C57.5803 0.466833 57.5819 0.43006 57.5752 0.394348C57.5684 0.358638 57.5536 0.324965 57.5315 0.295991C57.5094 0.267017 57.4808 0.243531 57.448 0.227382C57.4153 0.211235 57.379 0.202868 57.3425 0.202942H52.8807C52.8291 0.203103 52.7789 0.220057 52.738 0.251204C52.6969 0.282353 52.6673 0.325983 52.6536 0.375419L51.556 4.33743C51.5462 4.37231 51.5448 4.40894 51.5518 4.44447C51.5588 4.47999 51.5739 4.51345 51.596 4.54224C51.618 4.57104 51.6464 4.59437 51.6792 4.61048C51.7117 4.62656 51.7477 4.63495 51.7842 4.63502Z" fill="white"/>
<path d="M44.9251 4.63503H49.3419C49.3937 4.6347 49.4442 4.6175 49.4853 4.58603C49.5264 4.55457 49.556 4.5106 49.5694 4.46084L50.6494 0.498971C50.6589 0.464146 50.6603 0.42762 50.6531 0.392224C50.6461 0.35683 50.631 0.323523 50.609 0.294885C50.5869 0.26625 50.5583 0.24306 50.5258 0.227114C50.4932 0.211169 50.4572 0.202899 50.4209 0.202942H45.9656C45.9135 0.203132 45.8629 0.220451 45.8215 0.252206C45.7804 0.283959 45.7509 0.328362 45.7376 0.378494L44.6962 4.34048C44.6872 4.37522 44.686 4.41159 44.6932 4.4468C44.7004 4.48199 44.7157 4.51508 44.7378 4.5435C44.7599 4.57195 44.7883 4.59498 44.8208 4.61085C44.8533 4.6267 44.8889 4.63498 44.9251 4.63503Z" fill="white"/>
<path d="M38.0772 4.63502H42.4887C42.5412 4.6347 42.5919 4.61715 42.6332 4.5851C42.6746 4.55305 42.7041 4.50832 42.7169 4.45789L43.7416 0.495675C43.7506 0.461 43.7513 0.424744 43.7441 0.389693C43.7367 0.354641 43.7213 0.321721 43.6993 0.29346C43.6772 0.265201 43.6488 0.242348 43.6163 0.226658C43.584 0.210966 43.5482 0.202856 43.5122 0.202943H39.0624C39.0096 0.203129 38.9585 0.220799 38.9172 0.253141C38.8756 0.285483 38.8463 0.330647 38.8337 0.381454L37.8476 4.34336C37.839 4.37798 37.8383 4.4141 37.846 4.44898C37.8535 4.48386 37.8688 4.51659 37.8909 4.54468C37.9132 4.57278 37.9413 4.59551 37.9736 4.61115C38.0059 4.62681 38.0415 4.63497 38.0772 4.63502Z" fill="white"/>
<path d="M50.172 10.452H54.5428C54.5942 10.4519 54.6441 10.4353 54.685 10.4046C54.7259 10.3739 54.7557 10.3307 54.7696 10.2818L55.8689 6.4405C55.8789 6.40557 55.8807 6.36883 55.874 6.33316C55.8673 6.29746 55.8521 6.26381 55.8301 6.23487C55.808 6.20592 55.7794 6.18245 55.7469 6.16629C55.7141 6.15017 55.6778 6.1418 55.6414 6.14185H51.2357C51.1841 6.14194 51.1339 6.15883 51.0928 6.18995C51.0519 6.22107 51.0222 6.26469 51.0085 6.31415L49.9441 10.1554C49.9345 10.1902 49.9331 10.2268 49.9401 10.2622C49.9468 10.2977 49.9619 10.3311 49.984 10.3598C50.0061 10.3885 50.0347 10.4118 50.0672 10.4278C50.0998 10.4438 50.1358 10.4521 50.172 10.452Z" fill="white"/>
<path d="M43.4008 10.452H47.76C47.8118 10.4519 47.8622 10.435 47.9034 10.4037C47.9445 10.3723 47.974 10.3285 47.9877 10.2788L49.0286 6.43755C49.0382 6.40276 49.0396 6.36628 49.0324 6.3309C49.0254 6.29553 49.0103 6.26225 48.9882 6.23364C48.9661 6.20504 48.9375 6.18189 48.905 6.16597C48.8725 6.15005 48.8367 6.1418 48.8004 6.14185H44.4006C44.3483 6.14194 44.2977 6.15918 44.2565 6.19091C44.2152 6.2226 44.1856 6.26697 44.1724 6.3171L43.1721 10.1526C43.1628 10.1876 43.1619 10.2242 43.1689 10.2597C43.1761 10.2952 43.1912 10.3286 43.2133 10.3575C43.2353 10.3863 43.2637 10.4098 43.2962 10.4262C43.3285 10.4425 43.3646 10.4514 43.4008 10.452Z" fill="white"/>
<path d="M36.6308 10.452H40.9832C41.0362 10.4507 41.0871 10.4322 41.1284 10.3994C41.1696 10.3665 41.1988 10.3211 41.2116 10.2701L42.2037 6.43611C42.2128 6.40137 42.2135 6.36504 42.2063 6.3299C42.1989 6.29477 42.1838 6.26176 42.1617 6.23336C42.1396 6.20499 42.1112 6.182 42.0787 6.16613C42.0464 6.15028 42.0106 6.14196 41.9746 6.14185H37.5832C37.5304 6.14194 37.4793 6.15956 37.4377 6.19183C37.3963 6.22414 37.3668 6.26929 37.3542 6.3201L36.4012 10.157C36.3926 10.1918 36.3921 10.2281 36.3995 10.2631C36.407 10.2982 36.4223 10.3312 36.4444 10.3595C36.4665 10.3879 36.4946 10.411 36.5269 10.427C36.5592 10.443 36.5948 10.4515 36.6308 10.452Z" fill="white"/>
<path d="M48.5991 16.1267H52.9172C52.969 16.1258 53.0189 16.1084 53.0598 16.0769C53.1007 16.0455 53.1303 16.0018 53.1442 15.9524L54.2121 12.2051C54.2223 12.1702 54.2239 12.1335 54.2172 12.0978C54.2105 12.0622 54.1956 12.0285 54.1735 11.9996C54.1514 11.9706 54.1228 11.9471 54.0901 11.931C54.0573 11.9148 54.0213 11.9064 53.9848 11.9065H49.6373C49.5857 11.9066 49.5355 11.9235 49.4944 11.9546C49.4532 11.9857 49.4237 12.0293 49.41 12.0788L48.3714 15.8301C48.3616 15.8649 48.3602 15.9015 48.3672 15.9369C48.3742 15.9723 48.3893 16.0057 48.4114 16.0344C48.4332 16.0631 48.4618 16.0864 48.4943 16.1024C48.5269 16.1184 48.5629 16.1267 48.5991 16.1267Z" fill="white"/>
<path d="M41.9074 16.1267H46.214C46.2661 16.1262 46.3165 16.1087 46.3577 16.077C46.3988 16.0453 46.4286 16.0011 46.4418 15.9511L47.4653 12.2022C47.4748 12.1674 47.476 12.1309 47.469 12.0956C47.462 12.0602 47.4467 12.0269 47.4246 11.9984C47.4025 11.9698 47.3742 11.9466 47.3417 11.9307C47.3091 11.9147 47.2733 11.9064 47.2371 11.9065H42.8954C42.8431 11.9066 42.7924 11.9238 42.7513 11.9555C42.7099 11.9872 42.6804 12.0316 42.6671 12.0818L41.6787 15.8307C41.6695 15.8655 41.6685 15.9019 41.6757 15.9372C41.6829 15.9725 41.698 16.0056 41.7201 16.0342C41.7422 16.0627 41.7705 16.0859 41.8028 16.102C41.8354 16.118 41.8712 16.1264 41.9074 16.1267Z" fill="white"/>
<path d="M35.2233 16.1267H39.5183C39.5711 16.1262 39.622 16.1084 39.6634 16.0761C39.7047 16.0438 39.7342 15.9988 39.747 15.9482L40.7122 12.1992C40.7213 12.1646 40.7222 12.1283 40.7147 12.0933C40.7075 12.0583 40.6922 12.0254 40.6701 11.9971C40.648 11.9689 40.6197 11.946 40.5872 11.9303C40.5549 11.9146 40.5193 11.9064 40.4833 11.9065H36.1532C36.1004 11.9066 36.0493 11.9241 36.0077 11.9564C35.9663 11.9887 35.9368 12.0339 35.9243 12.0847L34.994 15.8337C34.9851 15.8683 34.9847 15.9045 34.9921 15.9395C34.9995 15.9744 35.0149 16.0072 35.037 16.0354C35.059 16.0636 35.0874 16.0865 35.1197 16.1023C35.1518 16.1181 35.1873 16.1265 35.2233 16.1267Z" fill="white"/>
</g>
<defs>
<clipPath id="clip0_5920_4528">
<rect width="57.4713" height="25" fill="white" transform="translate(0.107971)"/>
</clipPath>
</defs>
</svg>
