<svg width="100" height="25" viewBox="0 0 100 25" fill="none" xmlns="http://www.w3.org/2000/svg">
<g clip-path="url(#clip0_5921_4641)">
<path d="M86.4725 5C86.9452 5 87.418 5 87.9051 5C88.4514 5.56986 88.4514 5.56986 88.6125 5.83776C88.8302 6.18414 89.0781 6.4961 89.3376 6.8118C89.4228 6.91777 89.5079 7.02387 89.5928 7.13011C89.6345 7.18224 89.6762 7.23437 89.7191 7.28808C90.0337 7.68269 90.3445 8.08022 90.6557 8.47748C90.8481 8.72301 91.0409 8.96823 91.2337 9.21348C91.4646 9.50729 91.6955 9.80116 91.926 10.0954C92.3247 10.604 92.7255 11.1109 93.1298 11.6152C93.5727 12.1676 94.0112 12.7234 94.4478 13.2809C94.6403 13.5264 94.8331 13.7716 95.0258 14.0169C95.1031 14.1152 95.1803 14.2135 95.2576 14.3118C95.3149 14.3848 95.3149 14.3848 95.3735 14.4593C96.0301 15.2949 96.6867 16.1306 97.3433 16.9663C97.385 11.043 97.385 11.043 97.4275 5C97.9559 5 98.4843 5 99.0287 5C99.0287 9.95 99.0287 14.9 99.0287 20C97.5961 20 97.5961 20 97.1431 19.5681C97.0297 19.4196 97.0297 19.4196 96.9486 19.2877C96.7497 18.9783 96.5255 18.6957 96.2952 18.4094C96.217 18.3097 96.1389 18.2099 96.0611 18.1099C95.8292 17.8123 95.5961 17.5156 95.3629 17.2191C95.132 16.9253 94.9011 16.6314 94.6707 16.3372C94.3171 15.8862 93.9625 15.4363 93.6033 14.9897C93.2012 14.4899 92.8066 13.9854 92.4188 13.4744C92.0124 12.9392 91.5951 12.4144 91.1696 11.8944C90.7584 11.3917 90.3568 10.882 89.9572 10.3702C89.8406 10.2213 89.7235 10.0729 89.6063 9.92451C89.5666 9.87423 89.5269 9.82395 89.486 9.77214C89.3776 9.63482 89.2691 9.49756 89.1605 9.3603C88.8211 8.92207 88.4904 8.47715 88.1579 8.03371C88.1301 11.9826 88.1022 15.9315 88.0736 20C87.5452 20 87.0169 20 86.4725 20C86.4725 15.05 86.4725 10.1 86.4725 5Z" fill="white"/>
<path d="M28.832 5C37.227 5 37.227 5 38.7663 6.49644C39.6913 7.47791 40.0928 8.68553 40.0666 10.0298C39.9331 11.4273 39.3887 12.4846 38.34 13.422C37.6949 13.9192 36.9224 14.1662 36.1635 14.4382C36.2248 14.5097 36.286 14.5812 36.3491 14.6548C36.7099 15.0757 37.0707 15.4966 37.4315 15.9175C37.4727 15.9655 37.5138 16.0136 37.5562 16.063C37.6395 16.1602 37.7227 16.2573 37.8059 16.3545C38.0195 16.6038 38.2334 16.8529 38.4477 17.1016C38.8969 17.6234 39.3391 18.1493 39.7723 18.6846C40.0267 18.9897 40.2953 19.2807 40.5666 19.5708C40.7141 19.7472 40.7141 19.7472 40.7983 20C38.837 20.1603 38.837 20.1603 38.3907 19.8262C38.1793 19.5869 38.0147 19.3456 37.8489 19.073C37.7229 18.915 37.5948 18.7587 37.4644 18.6043C37.3717 18.4894 37.3717 18.4894 37.2771 18.3722C37.0941 18.1505 36.9049 17.9371 36.7112 17.7247C36.381 17.3624 36.0715 16.9866 35.7632 16.6055C35.5224 16.3145 35.2708 16.0356 35.0109 15.7616C34.8152 15.5337 34.8152 15.5337 34.6776 15.2933C34.468 14.9515 34.2718 14.6663 33.8685 14.5546C33.3132 14.4746 32.757 14.4943 32.1976 14.5067C31.6153 14.5119 31.033 14.5171 30.4332 14.5225C30.4332 16.3301 30.4332 18.1376 30.4332 20C29.9048 20 29.3764 20 28.832 20C28.832 15.05 28.832 10.1 28.832 5ZM30.4332 6.51685C30.4332 8.65815 30.4332 10.7994 30.4332 13.0056C31.1857 13.0126 31.9383 13.0195 32.7137 13.0267C33.066 13.0313 33.066 13.0313 33.4254 13.036C34.9816 13.0478 36.4251 12.9846 37.6329 11.8802C38.1877 11.2963 38.4116 10.58 38.4529 9.78329C38.4271 8.98391 38.1578 8.32334 37.6487 7.70716C37.5757 7.64807 37.5027 7.58897 37.4275 7.52809C37.3821 7.4879 37.3367 7.4477 37.2899 7.40629C36.5525 6.7923 35.6126 6.50514 34.6617 6.50729C34.5659 6.5073 34.4702 6.50731 34.3715 6.50732C34.2722 6.50775 34.1729 6.50818 34.0706 6.50862C33.9322 6.50875 33.9322 6.50875 33.791 6.50888C33.4477 6.50932 33.1044 6.5105 32.7611 6.51159C31.6088 6.51419 31.6088 6.51419 30.4332 6.51685Z" fill="white"/>
<path d="M18.0455 5C18.5461 5 19.0466 5 19.5624 5C20.3837 6.76848 21.2034 8.5376 22.0128 10.3116C22.0678 10.4323 22.1229 10.553 22.178 10.6737C22.2052 10.7334 22.2324 10.793 22.2605 10.8545C22.5817 11.5581 22.9049 12.2608 23.2281 12.9635C23.5848 13.7392 23.9413 14.5151 24.2959 15.2918C24.3389 15.3859 24.3389 15.3859 24.3828 15.482C24.4963 15.7307 24.6099 15.9794 24.7233 16.2281C25.0199 16.8783 25.3178 17.5277 25.6206 18.175C25.6465 18.2306 25.6725 18.2862 25.6993 18.3435C25.8215 18.6052 25.9441 18.8666 26.0673 19.1279C26.1098 19.2185 26.1522 19.3091 26.196 19.4025C26.2333 19.4817 26.2706 19.5609 26.309 19.6425C26.3882 19.8315 26.3882 19.8315 26.3882 20C24.7727 20.1649 23.5291 19.7682 22.0663 19.129C21.785 19.007 21.502 18.8893 21.2191 18.7712C20.8129 18.6013 20.4073 18.4303 20.0022 18.2577C18.9788 17.8218 17.947 17.4071 16.9144 16.9934C16.4539 16.8087 15.9939 16.6227 15.5339 16.4366C15.382 16.3753 15.2302 16.3139 15.0783 16.2526C14.9719 16.2096 14.8654 16.1666 14.759 16.1236C14.1581 17.411 13.5612 18.6993 12.9893 20C12.4053 20 11.8214 20 11.2197 20C11.5041 19.1468 11.5041 19.1468 11.6361 18.8651C11.6657 18.8014 11.6953 18.7377 11.7258 18.6721C11.7728 18.5725 11.7728 18.5725 11.8207 18.471C11.8541 18.3993 11.8875 18.3277 11.9219 18.2539C12.028 18.0264 12.1347 17.7992 12.2414 17.572C12.3458 17.349 12.4501 17.1259 12.5542 16.9028C12.6234 16.7548 12.6927 16.6068 12.7621 16.4589C12.9416 16.0753 13.1168 15.6904 13.2858 15.3022C13.32 15.2242 13.3541 15.1463 13.3893 15.066C13.4545 14.9166 13.5189 14.767 13.5825 14.617C13.6116 14.5504 13.6407 14.4838 13.6707 14.4153C13.6958 14.3565 13.721 14.2977 13.7469 14.2371C13.832 14.1011 13.832 14.1011 14.0848 14.0169C14.3164 14.0915 14.3164 14.0915 14.603 14.2134C14.6558 14.2355 14.7087 14.2577 14.7632 14.2805C14.8794 14.3293 14.9955 14.3784 15.1114 14.4279C15.4337 14.5653 15.7571 14.6999 16.0803 14.8349C16.1497 14.8639 16.219 14.893 16.2905 14.9229C17.0583 15.2436 17.8311 15.5513 18.6042 15.8588C20.2772 16.5243 21.9445 17.2028 23.6073 17.8933C22.8091 16.0783 21.9919 14.2732 21.1554 12.4755C21.1222 12.4042 21.0891 12.3329 21.0549 12.2594C21.0218 12.1884 20.9888 12.1175 20.9548 12.0444C20.6033 11.2883 20.2562 10.5303 19.91 9.77177C19.8684 9.68066 19.8684 9.68066 19.8259 9.58771C19.6099 9.11452 19.6099 9.11452 19.5159 8.90761C19.4049 8.66324 19.2928 8.41946 19.1788 8.17649C19.14 8.09352 19.1013 8.01056 19.0614 7.92508C19.0277 7.85386 18.994 7.78264 18.9593 7.70926C18.8882 7.52809 18.8882 7.52809 18.8882 7.27528C18.8326 7.27528 18.777 7.27528 18.7197 7.27528C18.687 7.38045 18.687 7.38045 18.6536 7.48774C18.5409 7.81025 18.4041 8.11723 18.2598 8.42642C18.2312 8.48837 18.2025 8.55032 18.173 8.61415C18.1117 8.74696 18.0501 8.87972 17.9885 9.01243C17.8266 9.3614 17.6654 9.71076 17.5043 10.0601C17.4556 10.1657 17.4556 10.1657 17.406 10.2733C17.0932 10.9521 16.7862 11.6333 16.4813 12.3157C16.4576 12.3686 16.4339 12.4216 16.4095 12.4762C16.2805 12.7649 16.1516 13.0538 16.023 13.3427C15.8906 13.3048 15.7583 13.2664 15.626 13.2278C15.5524 13.2065 15.4787 13.1852 15.4027 13.1632C15.084 13.0581 14.8016 12.9115 14.5062 12.7528C14.833 11.9375 15.2001 11.1429 15.5715 10.3472C15.7495 9.96598 15.9268 9.58448 16.104 9.20295C16.1397 9.12612 16.1754 9.04928 16.2122 8.97012C16.6143 8.10372 17.009 7.23401 17.4023 6.36356C17.4269 6.30904 17.4516 6.25452 17.477 6.19834C17.5426 6.05343 17.608 5.90845 17.6734 5.76347C17.7923 5.50654 17.9189 5.25322 18.0455 5Z" fill="white"/>
<path d="M62.9415 4.99042C63.0046 4.99086 63.0678 4.9913 63.1328 4.99175C63.2009 4.99203 63.2691 4.9923 63.3393 4.99258C63.411 4.99328 63.4826 4.99399 63.5564 4.99472C63.6284 4.9951 63.7004 4.99548 63.7745 4.99587C63.9529 4.99687 64.1312 4.99838 64.3096 4.99998C65.1011 6.71051 65.891 8.42166 66.6677 10.139C66.8809 10.6099 67.0948 11.0803 67.3186 11.5464C67.3511 11.6141 67.3836 11.6818 67.4172 11.7516C67.4739 11.869 67.5313 11.9861 67.5894 12.1028C67.7231 12.378 67.7646 12.5214 67.7646 12.8371C67.5576 12.9217 67.3504 13.0059 67.1432 13.0899C67.0843 13.114 67.0254 13.1381 66.9647 13.163C66.5197 13.3427 66.5197 13.3427 66.3321 13.3427C65.6095 11.8705 64.941 10.3761 64.2804 8.87533C64.0937 8.4518 63.9017 8.03095 63.705 7.61193C63.6354 7.4438 63.6354 7.4438 63.6354 7.27527C63.5798 7.27527 63.5242 7.27527 63.4669 7.27527C63.4445 7.34657 63.4222 7.41787 63.3991 7.49133C63.2942 7.79278 63.1689 8.07987 63.0343 8.3688C63.0083 8.42526 62.9823 8.48173 62.9555 8.53991C62.8993 8.66196 62.843 8.78396 62.7866 8.90592C62.6334 9.23714 62.4811 9.56877 62.3289 9.90046C62.2974 9.96911 62.2659 10.0378 62.2335 10.1085C61.906 10.8238 61.5882 11.5433 61.2706 12.263C60.7854 13.3618 60.2858 14.4528 59.7704 15.5377C59.4143 16.2885 59.0772 17.0462 58.7478 17.809C59.7729 17.4306 60.7886 17.031 61.8026 16.6239C61.965 16.5589 62.1275 16.4938 62.29 16.4288C63.2291 16.0526 64.1671 15.6739 65.1046 15.2937C65.3067 15.2118 65.5088 15.1299 65.711 15.048C66.104 14.8888 66.4968 14.7291 66.8896 14.5692C67.0692 14.4963 67.2489 14.4235 67.4286 14.3506C67.5115 14.3167 67.5944 14.2828 67.6799 14.2479C67.7933 14.202 67.7933 14.202 67.909 14.1552C67.9751 14.1284 68.0411 14.1015 68.1092 14.0738C68.2703 14.0168 68.2703 14.0168 68.4388 14.0168C69.0729 15.3608 69.7036 16.7062 70.3201 18.0583C70.3753 18.1794 70.4306 18.3004 70.486 18.4214C70.5637 18.5913 70.6411 18.7614 70.7184 18.9315C70.7624 19.0282 70.8064 19.1249 70.8518 19.2245C70.9598 19.4777 71.0484 19.7389 71.1354 20C70.5514 20 69.9675 20 69.3658 20C68.9916 19.2081 68.6268 18.412 68.267 17.6135C68.2164 17.5014 68.1658 17.3894 68.115 17.2774C68.0428 17.118 67.971 16.9584 67.8993 16.7987C67.8571 16.7053 67.815 16.6118 67.7716 16.5155C67.6804 16.2921 67.6804 16.2921 67.6804 16.1236C66.7204 16.4809 65.7641 16.8466 64.8099 17.2191C64.7033 17.2607 64.7033 17.2607 64.5945 17.3031C62.5394 18.1051 60.4927 18.9281 58.4455 19.7499C58.3784 19.7768 58.3113 19.8037 58.2422 19.8314C58.1685 19.8623 58.0949 19.8932 58.019 19.925C57.7912 20.0112 57.617 20.0193 57.3741 20.0164C57.2918 20.0159 57.2096 20.0154 57.1248 20.0148C56.9974 20.0127 56.9974 20.0127 56.8675 20.0105C56.781 20.0098 56.6945 20.009 56.6053 20.0082C56.3925 20.0062 56.1797 20.0035 55.9669 20C56.1562 19.3689 56.423 18.7845 56.7066 18.1912C56.8497 17.8917 56.9912 17.5914 57.1328 17.2912C57.1768 17.1982 57.1768 17.1982 57.2216 17.1033C57.5224 16.4653 57.8145 15.8235 58.1052 15.1808C58.2104 14.9485 58.3157 14.7162 58.4209 14.4839C58.4474 14.4255 58.4739 14.3671 58.5011 14.3069C58.8178 13.6086 59.1383 12.9121 59.4588 12.2156C59.5795 11.9531 59.7002 11.6907 59.8209 11.4282C59.8507 11.3633 59.8806 11.2984 59.9113 11.2316C60.2317 10.5346 60.5513 9.83729 60.8703 9.13973C60.8978 9.07962 60.9253 9.01951 60.9537 8.95758C61.2618 8.28398 61.5684 7.60972 61.8723 6.93424C61.9 6.8729 61.9276 6.81156 61.956 6.74836C62.0877 6.45583 62.2192 6.16319 62.3502 5.87037C62.3967 5.76699 62.4431 5.66362 62.4896 5.56025C62.53 5.47002 62.5704 5.37979 62.612 5.28682C62.7472 5.00291 62.7472 5.00291 62.9415 4.99042Z" fill="white"/>
<path d="M1.19159 5C4.80676 5 8.42193 5 12.1466 5C12.1466 5.50056 12.1466 6.00112 12.1466 6.51685C9.05985 6.51685 5.97305 6.51685 2.79271 6.51685C2.79271 7.51798 2.79271 8.5191 2.79271 9.55056C3.04299 9.63399 3.29327 9.71742 3.55114 9.80337C3.77422 9.88851 3.99604 9.97488 4.21742 10.0641C4.27917 10.0888 4.34093 10.1135 4.40456 10.139C4.6057 10.2195 4.80673 10.3003 5.00775 10.3811C5.14836 10.4374 5.28898 10.4937 5.42961 10.55C5.79749 10.6974 6.16527 10.845 6.53303 10.9927C6.90921 11.1436 7.28549 11.2944 7.66175 11.4451C8.39839 11.7403 9.13491 12.0358 9.87136 12.3315C9.62934 12.975 9.33832 13.5661 9.02867 14.1854C6.9708 14.1854 4.91294 14.1854 2.79271 14.1854C2.79271 16.1042 2.79271 18.023 2.79271 20C2.26434 20 1.73597 20 1.19159 20C1.19159 17.5806 1.19159 15.1612 1.19159 12.6685C2.86013 12.6407 4.52867 12.6129 6.24777 12.5843C5.8969 12.4514 5.54603 12.3186 5.18452 12.1817C4.90515 12.0758 4.62579 11.97 4.34644 11.8641C4.05133 11.7523 3.75621 11.6405 3.46107 11.5288C3.17691 11.4212 2.89279 11.3136 2.60869 11.2059C2.50018 11.1647 2.39166 11.1236 2.28312 11.0826C2.13136 11.0252 1.97964 10.9676 1.82793 10.9101C1.74148 10.8773 1.65502 10.8446 1.56595 10.8109C1.36013 10.7303 1.36013 10.7303 1.19159 10.6461C1.19159 8.78287 1.19159 6.91966 1.19159 5Z" fill="white"/>
<path d="M41.641 5C42.225 5 42.809 5 43.4107 5C43.9083 5.98333 44.382 6.97499 44.8433 7.97577C44.9137 8.12828 44.9842 8.28079 45.0547 8.43329C45.5487 9.50259 46.0393 10.5735 46.528 11.6452C46.8276 12.3021 47.1287 12.9583 47.4316 13.6136C47.4652 13.6864 47.4989 13.7592 47.5336 13.8342C47.6959 14.1854 47.8584 14.5365 48.0212 14.8876C48.4313 15.7733 48.8313 16.6632 49.2253 17.5562C49.7102 16.6018 50.1695 15.6377 50.6157 14.6647C50.6822 14.5202 50.7487 14.3757 50.8152 14.2311C51.2968 13.1842 51.7759 12.1361 52.2542 11.0877C52.6867 10.1404 53.1229 9.19486 53.5599 8.24965C54.0595 7.16912 54.5547 6.08709 55.0399 5C55.6517 5 56.2635 5 56.8938 5C56.4762 5.96291 56.0449 6.91823 55.6035 7.87044C55.5371 8.01394 55.4707 8.15744 55.4043 8.30096C55.2669 8.59802 55.1295 8.89504 54.992 9.19205C54.6686 9.89067 54.346 10.5896 54.0234 11.2886C53.9921 11.3565 53.9607 11.4244 53.9284 11.4943C53.4988 12.425 53.0701 13.3561 52.6424 14.2877C52.1328 15.3976 51.6228 16.5074 51.1116 17.6165C51.0452 17.7607 50.9788 17.9048 50.9125 18.049C50.8201 18.2496 50.7277 18.4502 50.6352 18.6507C50.5948 18.7385 50.5948 18.7385 50.5537 18.828C50.3714 19.2227 50.1797 19.6119 49.9837 20C49.511 20 49.0382 20 48.5511 20C47.6193 18.1744 46.7697 16.3078 45.9245 14.4409C45.3104 13.0846 44.6832 11.7345 44.0562 10.3841C43.616 9.43572 43.1784 8.48615 42.7407 7.53661C42.6964 7.44062 42.6964 7.44062 42.6513 7.3427C42.5939 7.21828 42.5366 7.09385 42.4793 6.96939C42.3399 6.66688 42.1993 6.36498 42.0566 6.06399C42.029 6.00548 42.0013 5.94698 41.9728 5.88671C41.9206 5.77636 41.8681 5.66614 41.8153 5.55606C41.641 5.18728 41.641 5.18728 41.641 5Z" fill="white"/>
<path d="M70.1241 5C74.5736 5 79.023 5 83.6073 5C83.6073 5.50056 83.6073 6.00112 83.6073 6.51685C81.6607 6.51685 79.714 6.51685 77.7084 6.51685C77.7084 10.9663 77.7084 15.4157 77.7084 20C77.18 20 76.6517 20 76.1073 20C76.1073 15.5506 76.1073 11.1011 76.1073 6.51685C74.1329 6.51685 72.1584 6.51685 70.1241 6.51685C70.1241 6.01629 70.1241 5.51573 70.1241 5Z" fill="white"/>
</g>
<defs>
<clipPath id="clip0_5921_4641">
<rect width="97.8371" height="15" fill="white" transform="translate(1.19159 5)"/>
</clipPath>
</defs>
</svg>
