<svg width="33" height="25" viewBox="0 0 33 25" fill="none" xmlns="http://www.w3.org/2000/svg">
<path d="M32.108 0H0.789734V1.17005H32.108V0Z" fill="white"/>
<path d="M32.108 23.83H0.789719V25H32.108V23.83Z" fill="white"/>
<path d="M18.1454 10.3354L19.9785 12.7925V10.3354H20.934L20.9925 10.3939V14.4696H20.037L18.1844 12.0125V14.4696H17.1704V10.3354H18.1454Z" fill="white"/>
<path d="M26.5698 8.73634H25.3607L24.7562 7.60529H23.9957V8.73634H22.9036V4.60217H24.9122C25.1501 4.60217 25.6435 4.74531 25.8556 4.86777C26.7445 5.38064 26.6493 6.91614 25.7531 7.39039L26.5698 8.73673V8.73634ZM23.9957 6.74726H24.8342C24.8474 6.74726 25.0467 6.69032 25.0768 6.67784C25.5421 6.48907 25.5854 5.74297 25.1423 5.54172C25.1045 5.52456 24.8962 5.46021 24.8728 5.46021H23.9953V6.74726H23.9957Z" fill="white"/>
<path d="M31.835 4.60217V5.46021H29.6899V6.24024H31.64V7.09827H29.6899V7.8783H31.8545L31.913 7.93681V8.73634H28.5978V4.60217H31.835Z" fill="white"/>
<path d="M26.4918 10.3354V11.1934H24.3467V11.9735H26.2967V12.8315H24.3467V13.6115H26.5113L26.5698 13.67V14.4696H23.2546V10.3354H26.4918Z" fill="white"/>
<path d="M8.62904 4.60217H9.68208V7.39078C9.68208 7.77963 9.22654 8.33033 8.89893 8.51871C7.75345 9.17667 5.89893 8.63142 5.89893 7.11777V4.66068L5.95743 4.60217H6.93247L6.99097 4.66068V7.19578C6.99097 7.21294 7.05727 7.38923 7.07326 7.4255C7.3373 8.02573 8.28621 8.04172 8.54752 7.42589C8.56507 7.38415 8.62943 7.18213 8.62943 7.15678V4.60217H8.62904Z" fill="white"/>
<path d="M19.6275 4.60217H20.6805V7.39078C20.6805 7.61738 20.3666 8.14781 20.1946 8.30888C19.1665 9.27261 16.8974 8.75584 16.8974 7.15678V4.66068L16.9559 4.60217H17.9309L17.9894 4.66068V7.19578C17.9894 7.21294 18.0557 7.38923 18.0717 7.4255C18.335 8.02339 19.2843 8.04562 19.546 7.42589C19.5635 7.38376 19.6279 7.18213 19.6279 7.15678V4.60217H19.6275Z" fill="white"/>
<path d="M10.2671 20.2808H9.09705L8.79908 19.5452L7.05376 19.5374L6.73746 20.2808H5.66492L7.47693 16.1439L8.53192 16.1853L10.2671 20.2808ZM8.47303 18.7208L7.94651 17.2773L7.38099 18.7208H8.47303Z" fill="white"/>
<path d="M15.2983 14.4696H14.1673L13.8693 13.734L12.1045 13.7332L11.8077 14.4696H10.7351L12.5471 10.3327L13.6021 10.374L15.2983 14.4696ZM13.5432 12.9095L13.0167 11.4661L12.4512 12.9095H13.5432Z" fill="white"/>
<path d="M27.7788 20.2808H26.6478L26.3498 19.5452L24.585 19.5445L24.2882 20.2808H23.2156L25.0276 16.1439L26.0826 16.1853L27.7788 20.2808ZM26.0237 18.7208L25.4972 17.2773L24.9317 18.7208H26.0237Z" fill="white"/>
<path d="M2.03778 13.3385V14.4696H0.94574V10.3354H2.91532C4.0565 10.3354 4.66181 11.3186 4.32796 12.372C4.01906 13.3471 2.88919 13.3576 2.03778 13.3385ZM2.03778 12.4805H2.79831C2.81157 12.4805 3.01087 12.4235 3.0409 12.411C3.4707 12.2367 3.5292 11.5749 3.14972 11.31C3.12437 11.2925 2.92858 11.1934 2.91532 11.1934H2.03778V12.4805Z" fill="white"/>
<path d="M12.6072 19.1498V20.2808H11.5152V16.1467H13.4457C13.7792 16.1467 14.3194 16.3132 14.5701 16.5433C15.0889 17.0191 15.113 18.0207 14.6946 18.5659C14.2055 19.2032 13.335 19.1416 12.6072 19.1502V19.1498ZM12.6072 18.2918H13.3677C13.381 18.2918 13.5803 18.2348 13.6103 18.2223C14.0467 18.0453 14.1021 17.351 13.6961 17.1049C13.6708 17.0897 13.459 17.0047 13.4453 17.0047H12.6068V18.2918H12.6072Z" fill="white"/>
<path d="M4.72343 16.7758C4.74371 16.8112 4.72811 16.8538 4.70939 16.8877C4.67156 16.9567 4.16844 17.5503 4.12437 17.5503C3.68989 17.1002 3.10721 16.8502 2.5175 17.1923C1.30299 17.8967 2.27491 20.1931 3.90713 19.0889C3.99293 19.0308 4.0409 18.9006 4.15518 18.9201C4.19418 18.9302 4.69379 19.4649 4.71056 19.5016C4.72421 19.5316 4.73864 19.5566 4.7246 19.5905C3.54987 20.8729 1.22616 20.4279 0.911418 18.6186C0.583805 16.7367 2.49644 15.5944 4.13139 16.3736C4.36189 16.4836 4.51789 16.6353 4.72343 16.7758Z" fill="white"/>
<path d="M4.02686 5.46021H2.03778V6.39624H3.87086V7.21528H2.03778V8.73634H0.94574V4.60217H3.96836L4.02686 4.66068V5.46021Z" fill="white"/>
<path d="M22.3186 16.1467V17.0437H21.1095V20.2808H20.0175V17.0437H18.8084V16.1467H22.3186Z" fill="white"/>
<path d="M15.0643 4.60217V5.49921H13.8747L13.8162 5.55771V8.73634H12.7632V5.49921H11.5542V4.60217H15.0643Z" fill="white"/>
<path d="M31.835 10.3354V11.2324H30.6454L30.5869 11.2909V14.4696H29.5339V11.2324H28.3248V10.3354H31.835Z" fill="white"/>
<path d="M7.49799 13.5725H9.21406V14.4696H6.40594V10.3354H7.43949L7.49799 10.3939V13.5725Z" fill="white"/>
<path d="M30.1579 19.3838H31.874V20.2808H29.0659V16.1467H30.0994L30.1579 16.2052V19.3838Z" fill="white"/>
<path d="M17.4824 20.2808H16.3904V16.1467H17.4239L17.4824 16.2052V20.2808Z" fill="white"/>
<path d="M23.9957 6.74726V5.46021H24.8732C24.8962 5.46021 25.1049 5.52456 25.1427 5.54172C25.5857 5.74297 25.5421 6.48907 25.0772 6.67783C25.0471 6.68992 24.8478 6.74726 24.8346 6.74726H23.996H23.9957Z" fill="black"/>
<path d="M8.47304 18.7207H7.381L7.94652 17.2773L8.47304 18.7207Z" fill="black"/>
<path d="M13.5432 12.9095H12.4512L13.0167 11.4661L13.5432 12.9095Z" fill="black"/>
<path d="M26.0237 18.7207H24.9317L25.4972 17.2773L26.0237 18.7207Z" fill="black"/>
<path d="M2.03778 12.4805V11.1934H2.91532C2.92858 11.1934 3.12436 11.2925 3.14972 11.31C3.5292 11.5749 3.47109 12.2367 3.0409 12.411C3.01087 12.4231 2.81157 12.4805 2.79831 12.4805H2.03778Z" fill="black"/>
<path d="M12.6072 18.2918V17.0047H13.4457C13.4594 17.0047 13.6712 17.0897 13.6965 17.1049C14.1021 17.351 14.0471 18.0453 13.6107 18.2223C13.5807 18.2344 13.3814 18.2918 13.3681 18.2918H12.6076H12.6072Z" fill="black"/>
</svg>
